<svg xmlns:dc="http://purl.org/dc/elements/1.1/" xmlns:cc="http://creativecommons.org/ns#" xmlns:rdf="http://www.w3.org/1999/02/22-rdf-syntax-ns#" xmlns:svg="http://www.w3.org/2000/svg" xmlns="http://www.w3.org/2000/svg" xmlns:sodipodi="http://sodipodi.sourceforge.net/DTD/sodipodi-0.dtd" xmlns:inkscape="http://www.inkscape.org/namespaces/inkscape" id="svg2985" version="1.1" inkscape:version="0.48.3.1 r9886" width="400" height="287.5" xml:space="preserve" sodipodi:docname="Hilton_Hotels_Logo_1966.svg"><metadata id="metadata2991"><rdf:RDF><cc:Work rdf:about=""><dc:format>image/svg+xml</dc:format><dc:type rdf:resource="http://purl.org/dc/dcmitype/StillImage"/><dc:title/></cc:Work></rdf:RDF></metadata><defs id="defs2989"/><sodipodi:namedview pagecolor="#ffffff" bordercolor="#666666" borderopacity="1" objecttolerance="10" gridtolerance="10" guidetolerance="10" inkscape:pageopacity="0" inkscape:pageshadow="2" inkscape:window-width="1366" inkscape:window-height="709" id="namedview2987" showgrid="false" showguides="true" inkscape:guide-bbox="true" inkscape:object-nodes="true" inkscape:snap-smooth-nodes="true" fit-margin-top="0" fit-margin-left="0" fit-margin-right="0" fit-margin-bottom="0" inkscape:zoom="1.1942822" inkscape:cx="93.964507" inkscape:cy="172.3172" inkscape:window-x="-8" inkscape:window-y="-8" inkscape:window-maximized="1" inkscape:current-layer="g2993" inkscape:snap-object-midpoints="true"/><g id="g2993" inkscape:groupmode="layer" inkscape:label="1972 Annual Report" transform="matrix(1.25,0,0,-1.25,-637.25,377.25071)"><path style="fill:#cccccc;fill-opacity:1;fill-rule:nonzero;stroke:none" d="M 0,0 0,3.125 C 68.131188,9.5457125 121.235,68.472988 121.25,143.75 121.23497,219.02701 68.131187,277.95428 0,284.375 l 0,3.125 177.15625,0 0,-155.28125 45.6875,0 0,155.28125 177.15625,0 0,-3.125 C 331.86881,277.95429 278.765,219.02701 278.75,143.75 278.765,68.472988 331.86881,9.5457125 400,3.125 L 400,0 222.84375,0 l 0,84.8125 -45.6875,0 0,-84.8125 z" transform="matrix(0.8,0,0,-0.8,509.8,301.80057)" id="path3011" inkscape:connector-curvature="0" sodipodi:nodetypes="ccccccccccccccccccc"/></g></svg>